<?xml version="1.0" encoding="iso-8859-1"?>
<!-- Uploaded to: SVG Repo, www.svgrepo.com, Generator: SVG Repo Mixer Tools -->
<svg fill="#000000" height="800px" width="800px" version="1.1" id="Layer_1" xmlns="http://www.w3.org/2000/svg" xmlns:xlink="http://www.w3.org/1999/xlink" 
	 viewBox="0 0 512 512" xml:space="preserve">
<g>
	<g>
		<path d="M256,0C114.841,0,0,114.841,0,256s114.841,256,256,256s256-114.841,256-256S397.16,0,256,0z M256,478.449
			c-122.66,0-222.449-99.791-222.449-222.449S133.34,33.551,256,33.551S478.449,133.34,478.449,256S378.66,478.449,256,478.449z"/>
	</g>
</g>
<g>
	<g>
		<path d="M256,215.122c-22.539,0-40.878,18.338-40.878,40.878S233.46,296.878,256,296.878S296.878,278.54,296.878,256
			S278.54,215.122,256,215.122z M256,263.327c-4.039,0-7.327-3.287-7.327-7.327c0-4.041,3.287-7.327,7.327-7.327
			c4.041,0,7.327,3.287,7.327,7.327C263.327,260.041,260.041,263.327,256,263.327z"/>
	</g>
</g>
<g>
	<g>
		<path d="M256,54.322C144.517,54.322,54.322,145.096,54.322,256c0,110.935,90.252,201.678,201.678,201.678
			c111.225,0,201.678-90.539,201.678-201.678C457.678,145.103,367.49,54.322,256,54.322z M256,87.872
			c77.832,0,143.471,53.165,162.534,125.084l-83.681-8.149c-16.795-25.78-45.857-42.872-78.853-42.872
			c-32.996,0-62.059,17.092-78.853,42.872l-83.681,8.149C112.529,141.038,178.168,87.872,256,87.872z M87.872,256
			c0-2.929,0.077-5.871,0.232-8.811l75.239-7.329c-0.828,4.723-1.408,10.664-1.408,16.14c0,4.15,0.35,9.357,1.01,13.821
			l-74.878-5.834C87.925,260.973,87.872,258.316,87.872,256z M93.193,298.039l82.209,6.405
			c7.189,11.916,16.944,22.111,28.495,29.825l5.406,83.255C152.532,401.085,108.031,355.465,93.193,298.039z M268.678,423.651
			c-8.022,0.604-17.049,0.625-25.355,0l-4.886-75.254c5.688,1.097,12.012,1.667,17.564,1.667c5.503,0,11.828-0.561,17.564-1.667
			L268.678,423.651z M256,316.514c-33.422,0-60.514-27.25-60.514-60.514c0-33.151,26.988-60.514,60.514-60.514
			c33.567,0,60.514,27.411,60.514,60.514C316.515,289.103,289.572,316.514,256,316.514z M302.697,417.524l5.406-83.255
			c11.55-7.714,21.307-17.909,28.495-29.825l82.209-6.405C403.969,355.465,359.468,401.085,302.697,417.524z M349.055,269.822
			c0.645-4.354,1.01-9.57,1.01-13.821c0-5.468-0.573-11.423-1.409-16.14l75.239,7.329c0.154,2.94,0.232,5.883,0.232,8.812
			c0.001,2.365-0.054,5.024-0.193,7.986L349.055,269.822z"/>
	</g>
</g>
</svg>