<?xml version="1.0" encoding="iso-8859-1"?>
<!-- Uploaded to: SVG Repo, www.svgrepo.com, Generator: SVG Repo Mixer Tools -->
<svg fill="#000000" height="800px" width="800px" version="1.1" id="Layer_1" xmlns="http://www.w3.org/2000/svg" xmlns:xlink="http://www.w3.org/1999/xlink" 
	 viewBox="0 0 512 512" xml:space="preserve">
<g>
	<g>
		<path d="M437.02,74.98C388.667,26.628,324.381,0,256,0S123.333,26.628,74.98,74.98C26.628,123.333,0,187.62,0,256
			s26.628,132.667,74.98,181.02C123.333,485.372,187.619,512,256,512s132.667-26.628,181.02-74.98
			C485.372,388.667,512,324.38,512,256S485.372,123.333,437.02,74.98z M256,79.273c59.312,0,111.892,29.371,143.963,74.331
			l-86.439,49.906c-14.257-15.612-34.765-25.423-57.524-25.423s-43.267,9.811-57.524,25.423l-86.439-49.906
			C144.108,108.644,196.688,79.273,256,79.273z M239.304,431.933C149.658,423.493,79.273,347.817,79.273,256
			c0-26.213,5.744-51.108,16.028-73.501l86.447,49.91c-2.372,7.446-3.661,15.37-3.661,23.591c0,37.23,26.254,68.427,61.217,76.093
			V431.933z M211.478,256c0-24.549,19.972-44.522,44.522-44.522c24.549,0,44.522,19.972,44.522,44.522
			c0,24.549-19.972,44.522-44.522,44.522C231.451,300.522,211.478,280.549,211.478,256z M272.696,431.933v-99.84
			c34.963-7.666,61.217-38.863,61.217-76.093c0-8.221-1.289-16.145-3.661-23.591l86.447-49.91
			c10.283,22.394,16.028,47.289,16.028,73.501C432.727,347.817,362.342,423.493,272.696,431.933z"/>
	</g>
</g>
</svg>