<?xml version="1.0" encoding="iso-8859-1"?>
<!-- Uploaded to: SVG Repo, www.svgrepo.com, Generator: SVG Repo Mixer Tools -->
<svg fill="#000000" height="800px" width="800px" version="1.1" id="Layer_1" xmlns="http://www.w3.org/2000/svg" xmlns:xlink="http://www.w3.org/1999/xlink" 
	 viewBox="0 0 512 512" xml:space="preserve">
<g>
	<g>
		<g>
			<path d="M149.342,298.66c0-11.776-9.557-21.333-21.333-21.333s-21.333,9.557-21.333,21.333s9.557,21.333,21.333,21.333
				S149.342,310.436,149.342,298.66z"/>
			<path d="M384.009,277.327c-11.776,0-21.333,9.557-21.333,21.333s9.557,21.333,21.333,21.333s21.333-9.557,21.333-21.333
				S395.785,277.327,384.009,277.327z"/>
			<path d="M256,0C114.618,0,0,114.618,0,256s114.618,256,256,256s256-114.618,256-256S397.382,0,256,0z M256,469.333
				c-117.818,0-213.333-95.515-213.333-213.333S138.182,42.667,256,42.667S469.333,138.182,469.333,256S373.818,469.333,256,469.333
				z"/>
			<path d="M446.363,232.022C434.423,136.45,353.066,64,256,64c-97.058,0-178.398,72.441-190.363,168.017
				C64.043,244.751,73.972,256,86.805,256h338.389C438.026,256,447.954,244.754,446.363,232.022z M112.995,213.333
				C131.443,151.216,188.899,106.667,256,106.667c67.108,0,124.575,44.555,143.01,106.667H112.995z"/>
			<path d="M256,320c-60.224,0-113.769,16.126-136.671,43.114c-7.198,8.482-6.67,21.07,1.212,28.92
				C156.29,427.634,204.554,448,256,448c51.45,0,99.735-20.369,135.48-55.966c7.882-7.849,8.41-20.438,1.212-28.92
				C369.789,336.124,316.242,320,256,320z M256,405.333c-31.306,0-61.044-9.666-85.831-27.131
				c19.925-9.167,51.187-15.536,85.831-15.536c34.657,0,65.923,6.368,85.851,15.535C317.06,395.665,287.309,405.333,256,405.333z"/>
		</g>
	</g>
</g>
</svg>