<?xml version="1.0" encoding="UTF-8"?>
<svg xmlns="http://www.w3.org/2000/svg" xmlns:xlink="http://www.w3.org/1999/xlink" width="2501" height="2501" viewBox="0 0 2501 2501">
<path fill-rule="evenodd" fill="rgb(0%, 0%, 0%)" fill-opacity="1" d="M 1250.839844 534.25 C 855.453125 534.25 534.929688 854.769531 534.929688 1250.160156 C 534.929688 1645.546875 855.453125 1966.070312 1250.839844 1966.070312 C 1646.230469 1966.070312 1966.75 1645.546875 1966.75 1250.160156 C 1966.75 854.769531 1646.230469 534.25 1250.839844 534.25 Z M 1250.839844 783.761719 C 993.253906 783.761719 784.4375 992.570312 784.4375 1250.160156 C 784.4375 1507.746094 993.253906 1716.5625 1250.839844 1716.5625 C 1508.429688 1716.5625 1717.238281 1507.746094 1717.238281 1250.160156 C 1717.238281 992.570312 1508.429688 783.761719 1250.839844 783.761719 "/>
<path fill-rule="evenodd" fill="rgb(0%, 0%, 0%)" fill-opacity="1" d="M 1250.839844 836.851562 C 1022.570312 836.851562 837.523438 1021.890625 837.523438 1250.160156 C 837.523438 1478.429688 1022.570312 1663.476562 1250.839844 1663.476562 C 1479.109375 1663.476562 1664.148438 1478.429688 1664.148438 1250.160156 C 1664.148438 1021.890625 1479.109375 836.851562 1250.839844 836.851562 Z M 1176.300781 1108.148438 C 1172.5 1110.148438 1168.789062 1112.300781 1165.179688 1114.589844 C 1152.800781 1122.421875 1138.128906 1122.71875 1125.441406 1115.398438 L 999.464844 1042.660156 C 988.675781 1036.429688 982.0625 1026.441406 980.546875 1014.078125 C 979.03125 1001.710938 983.039062 990.421875 992.003906 981.769531 C 1035.230469 940.070312 1088.511719 908.730469 1147.839844 891.710938 C 1159.808594 888.28125 1171.589844 890.460938 1181.539062 897.960938 C 1191.488281 905.449219 1196.828125 916.171875 1196.828125 928.628906 L 1196.828125 1074.171875 C 1196.828125 1088.800781 1189.25 1101.339844 1176.300781 1108.148438 Z M 1090.609375 1243.71875 C 1090.519531 1245.859375 1090.480469 1248 1090.480469 1250.160156 C 1090.480469 1252.320312 1090.519531 1254.460938 1090.609375 1256.601562 C 1091.191406 1271.21875 1084.109375 1284.058594 1071.441406 1291.371094 L 945.367188 1364.160156 C 934.574219 1370.390625 922.609375 1371.121094 911.140625 1366.238281 C 899.667969 1361.359375 891.894531 1352.238281 888.894531 1340.140625 C 881.75 1311.328125 877.957031 1281.191406 877.957031 1250.160156 C 877.957031 1219.128906 881.75 1188.988281 888.894531 1160.179688 C 891.894531 1148.078125 899.667969 1138.960938 911.140625 1134.078125 C 922.609375 1129.199219 934.574219 1129.929688 945.367188 1136.160156 L 1071.441406 1208.949219 C 1084.109375 1216.261719 1091.191406 1229.101562 1090.609375 1243.71875 Z M 1165.179688 1385.738281 C 1168.800781 1388.019531 1172.511719 1390.171875 1176.308594 1392.171875 C 1189.25 1398.980469 1196.828125 1411.519531 1196.828125 1426.148438 L 1196.828125 1571.695312 C 1196.828125 1584.152344 1191.488281 1594.867188 1181.539062 1602.363281 C 1171.589844 1609.859375 1159.808594 1612.042969 1147.839844 1608.609375 C 1088.511719 1591.59375 1035.238281 1560.246094 992.007812 1518.554688 C 983.039062 1509.902344 979.035156 1498.609375 980.550781 1486.238281 C 982.0625 1473.878906 988.675781 1463.890625 999.464844 1457.660156 L 1125.441406 1384.921875 C 1138.128906 1377.601562 1152.808594 1377.898438 1165.179688 1385.738281 Z M 1325.378906 1392.171875 C 1329.171875 1390.171875 1332.878906 1388.019531 1336.5 1385.730469 C 1348.878906 1377.898438 1363.550781 1377.601562 1376.238281 1384.921875 L 1502.21875 1457.660156 C 1513.011719 1463.890625 1519.621094 1473.878906 1521.128906 1486.25 C 1522.648438 1498.609375 1518.640625 1509.902344 1509.679688 1518.554688 C 1466.449219 1560.25 1413.171875 1591.59375 1353.839844 1608.609375 C 1341.859375 1612.042969 1330.089844 1609.859375 1320.140625 1602.363281 C 1310.191406 1594.867188 1304.851562 1584.148438 1304.851562 1571.695312 L 1304.851562 1426.148438 C 1304.851562 1411.519531 1312.429688 1398.980469 1325.378906 1392.171875 Z M 1411.070312 1256.601562 C 1411.160156 1254.460938 1411.199219 1252.320312 1411.199219 1250.160156 C 1411.199219 1248 1411.160156 1245.859375 1411.070312 1243.71875 C 1410.488281 1229.101562 1417.570312 1216.261719 1430.238281 1208.949219 L 1556.308594 1136.160156 C 1567.109375 1129.929688 1579.070312 1129.199219 1590.539062 1134.078125 C 1602.011719 1138.960938 1609.789062 1148.078125 1612.789062 1160.179688 C 1619.929688 1188.988281 1623.71875 1219.128906 1623.71875 1250.160156 C 1623.71875 1281.191406 1619.929688 1311.328125 1612.78125 1340.140625 C 1609.78125 1352.238281 1602.011719 1361.359375 1590.539062 1366.238281 C 1579.070312 1371.121094 1567.101562 1370.390625 1556.308594 1364.160156 L 1430.238281 1291.371094 C 1417.570312 1284.058594 1410.488281 1271.21875 1411.070312 1256.601562 Z M 1336.5 1114.578125 C 1332.878906 1112.300781 1329.171875 1110.148438 1325.371094 1108.148438 C 1312.429688 1101.339844 1304.851562 1088.800781 1304.851562 1074.171875 L 1304.851562 928.621094 C 1304.851562 916.171875 1310.191406 905.449219 1320.140625 897.960938 C 1330.089844 890.460938 1341.871094 888.28125 1353.839844 891.710938 C 1413.171875 908.730469 1466.441406 940.070312 1509.671875 981.769531 C 1518.640625 990.421875 1522.640625 1001.710938 1521.128906 1014.078125 C 1519.621094 1026.441406 1513 1036.441406 1502.210938 1042.671875 L 1376.238281 1115.398438 C 1363.550781 1122.71875 1348.871094 1122.421875 1336.5 1114.578125 "/>
<path fill-rule="evenodd" fill="rgb(100%, 100%, 100%)" fill-opacity="1" d="M 1250.839844 1181.269531 C 1212.800781 1181.269531 1181.949219 1212.121094 1181.949219 1250.160156 C 1181.949219 1288.199219 1212.800781 1319.050781 1250.839844 1319.050781 C 1288.878906 1319.050781 1319.730469 1288.199219 1319.730469 1250.160156 C 1319.730469 1212.121094 1288.878906 1181.269531 1250.839844 1181.269531 "/>
<path fill-rule="evenodd" fill="rgb(100%, 100%, 100%)" fill-opacity="1" d="M 1254.230469 1106.601562 L 1260.058594 1109.96875 L 1265.890625 1113.328125 C 1268.050781 1114.578125 1269.28125 1116.71875 1269.28125 1119.210938 L 1269.28125 1132.671875 C 1269.28125 1135.160156 1268.050781 1137.300781 1265.890625 1138.550781 L 1260.058594 1141.910156 L 1254.230469 1145.28125 C 1252.070312 1146.519531 1249.609375 1146.519531 1247.449219 1145.28125 L 1241.621094 1141.910156 L 1235.789062 1138.550781 C 1233.628906 1137.300781 1232.398438 1135.160156 1232.398438 1132.671875 L 1232.398438 1119.210938 C 1232.398438 1116.71875 1233.628906 1114.578125 1235.789062 1113.328125 L 1241.621094 1109.96875 L 1247.449219 1106.601562 C 1249.609375 1105.359375 1252.070312 1105.359375 1254.230469 1106.601562 "/>
<path fill-rule="evenodd" fill="rgb(100%, 100%, 100%)" fill-opacity="1" d="M 1128.210938 1175.441406 L 1134.039062 1172.078125 L 1139.871094 1168.710938 C 1142.03125 1167.460938 1144.5 1167.460938 1146.648438 1168.710938 L 1152.480469 1172.078125 L 1158.308594 1175.441406 C 1160.46875 1176.691406 1161.710938 1178.828125 1161.710938 1181.320312 L 1161.710938 1194.78125 C 1161.699219 1197.269531 1160.46875 1199.410156 1158.308594 1200.660156 L 1152.480469 1204.019531 L 1146.648438 1207.390625 C 1144.5 1208.628906 1142.03125 1208.628906 1139.871094 1207.390625 L 1134.039062 1204.019531 L 1128.210938 1200.660156 C 1126.050781 1199.410156 1124.820312 1197.269531 1124.820312 1194.78125 L 1124.820312 1181.320312 C 1124.820312 1178.828125 1126.050781 1176.691406 1128.210938 1175.441406 "/>
<path fill-rule="evenodd" fill="rgb(100%, 100%, 100%)" fill-opacity="1" d="M 1124.820312 1319 L 1124.820312 1305.539062 C 1124.820312 1303.050781 1126.050781 1300.910156 1128.210938 1299.660156 L 1134.039062 1296.300781 L 1139.871094 1292.929688 C 1142.03125 1291.691406 1144.5 1291.691406 1146.648438 1292.929688 L 1152.480469 1296.300781 L 1158.308594 1299.660156 C 1160.46875 1300.910156 1161.699219 1303.050781 1161.710938 1305.539062 L 1161.710938 1319 C 1161.710938 1321.488281 1160.46875 1323.628906 1158.308594 1324.878906 L 1152.480469 1328.238281 L 1146.648438 1331.609375 C 1144.5 1332.859375 1142.03125 1332.859375 1139.871094 1331.609375 L 1134.039062 1328.238281 L 1128.210938 1324.878906 C 1126.050781 1323.628906 1124.820312 1321.488281 1124.820312 1319 "/>
<path fill-rule="evenodd" fill="rgb(100%, 100%, 100%)" fill-opacity="1" d="M 1247.449219 1393.71875 L 1241.621094 1390.351562 L 1235.789062 1386.988281 C 1233.628906 1385.738281 1232.398438 1383.601562 1232.398438 1381.109375 L 1232.398438 1367.648438 C 1232.398438 1365.160156 1233.628906 1363.019531 1235.789062 1361.769531 L 1241.621094 1358.410156 L 1247.449219 1355.039062 C 1249.609375 1353.800781 1252.070312 1353.800781 1254.230469 1355.039062 L 1260.058594 1358.410156 L 1265.890625 1361.769531 C 1268.050781 1363.019531 1269.28125 1365.160156 1269.28125 1367.648438 L 1269.28125 1381.109375 C 1269.28125 1383.601562 1268.050781 1385.738281 1265.890625 1386.988281 L 1260.058594 1390.351562 L 1254.230469 1393.71875 C 1252.070312 1394.960938 1249.609375 1394.960938 1247.449219 1393.71875 "/>
<path fill-rule="evenodd" fill="rgb(100%, 100%, 100%)" fill-opacity="1" d="M 1373.46875 1324.878906 L 1367.640625 1328.238281 L 1361.808594 1331.609375 C 1359.648438 1332.859375 1357.179688 1332.859375 1355.03125 1331.609375 L 1349.199219 1328.238281 L 1343.359375 1324.878906 C 1341.210938 1323.628906 1339.96875 1321.488281 1339.96875 1319 L 1339.96875 1305.539062 C 1339.96875 1303.050781 1341.210938 1300.910156 1343.359375 1299.660156 L 1349.199219 1296.300781 L 1355.03125 1292.929688 C 1357.179688 1291.691406 1359.648438 1291.691406 1361.808594 1292.929688 L 1367.640625 1296.300781 L 1373.46875 1299.660156 C 1375.628906 1300.910156 1376.859375 1303.050781 1376.859375 1305.539062 L 1376.859375 1319 C 1376.859375 1321.488281 1375.628906 1323.628906 1373.46875 1324.878906 "/>
<path fill-rule="evenodd" fill="rgb(100%, 100%, 100%)" fill-opacity="1" d="M 1376.859375 1181.320312 L 1376.859375 1194.78125 C 1376.859375 1197.269531 1375.628906 1199.410156 1373.46875 1200.660156 L 1367.640625 1204.019531 L 1361.808594 1207.390625 C 1359.648438 1208.628906 1357.179688 1208.628906 1355.03125 1207.390625 L 1349.199219 1204.019531 L 1343.359375 1200.660156 C 1341.210938 1199.410156 1339.96875 1197.269531 1339.96875 1194.78125 L 1339.96875 1181.320312 C 1339.96875 1178.828125 1341.210938 1176.691406 1343.359375 1175.441406 L 1349.199219 1172.078125 L 1355.03125 1168.710938 C 1357.179688 1167.460938 1359.648438 1167.460938 1361.808594 1168.710938 L 1367.640625 1172.078125 L 1373.46875 1175.441406 C 1375.628906 1176.691406 1376.859375 1178.828125 1376.859375 1181.320312 "/>
<path fill-rule="evenodd" fill="rgb(0%, 0%, 0%)" fill-opacity="1" d="M 1250.839844 1193.230469 C 1219.398438 1193.230469 1193.910156 1218.71875 1193.910156 1250.160156 C 1193.910156 1281.601562 1219.398438 1307.089844 1250.839844 1307.089844 C 1282.28125 1307.089844 1307.769531 1281.601562 1307.769531 1250.160156 C 1307.769531 1218.71875 1282.28125 1193.230469 1250.839844 1193.230469 "/>
</svg>
